# xmcd CD database file
#
# Track frame offsets:
#	150
#	20531
#	26634
#	36567
#	52909
#	61132
#	68248
#	74184
#	91863
#	113919
#	135742
#	156572
#	171299
#
# Disc length: 2521 seconds
#
# Revision: 0
# Processed by: cddbd v1.5.1PL2 Copyright (c) Steve Scherf et al.
# Submitted via: CDex 1.50
#
DISCID=be09d70d
DTITLE=Андрей Монгуш и ансамбль САЛГАЛ - В Почёте
DYEAR=2004
DGENRE=New Age
TTITLE0=Тывам
TTITLE1=Дындгылдый
TTITLE2=Декей-оо
TTITLE3=Конгур-Бай
TTITLE4=Эки аъттар
TTITLE5=Узун хоюг
TTITLE6=Окур
TTITLE7=Кожамык
TTITLE8=Миннип чор
TTITLE9=Чайлаг
TTITLE10=Любовь
TTITLE11=Bonus 1
TTITLE12=Bonus 2
EXTD=YEAR: 2004
EXTT0=
EXTT1=
EXTT2=
EXTT3=
EXTT4=
EXTT5=
EXTT6=
EXTT7=
EXTT8=
EXTT9=
EXTT10=
EXTT11=
EXTT12=
PLAYORDER=
